<?xml version="1.0" encoding="UTF-8" standalone="no"?>
<!DOCTYPE svg PUBLIC "-//W3C//DTD SVG 1.1//EN"
 "http://www.w3.org/Graphics/SVG/1.1/DTD/svg11.dtd">
<!-- Generated by graphviz version 2.44.1 (20200629.0846)
 -->
<!-- Title: G Pages: 1 -->
<svg width="2049pt" height="608pt"
 viewBox="0.00 0.00 2049.20 607.70" xmlns="http://www.w3.org/2000/svg" xmlns:xlink="http://www.w3.org/1999/xlink">
<g id="graph0" class="graph" transform="scale(1 1) rotate(0) translate(21.6 586.1)">
<title>G</title>
<polygon fill="#111111" stroke="transparent" points="-21.6,21.6 -21.6,-586.1 2027.6,-586.1 2027.6,21.6 -21.6,21.6"/>
<!-- ../application/domains/form/entity.ts -->
<g id="node1" class="node">
<title>../application/domains/form/entity.ts</title>
<path fill="none" stroke="#cfffac" d="M1995.83,-300C1995.83,-300 1782.17,-300 1782.17,-300 1778.33,-300 1774.5,-296.17 1774.5,-292.33 1774.5,-292.33 1774.5,-284.67 1774.5,-284.67 1774.5,-280.83 1778.33,-277 1782.17,-277 1782.17,-277 1995.83,-277 1995.83,-277 1999.67,-277 2003.5,-280.83 2003.5,-284.67 2003.5,-284.67 2003.5,-292.33 2003.5,-292.33 2003.5,-296.17 1999.67,-300 1995.83,-300"/>
<text text-anchor="middle" x="1889" y="-284.8" font-family="Arial" font-size="14.00" fill="#cfffac">../application/domains/form/entity.ts</text>
</g>
<!-- ../application/domains/users/entity.ts -->
<g id="node2" class="node">
<title>../application/domains/users/entity.ts</title>
<path fill="none" stroke="#cfffac" d="M1998.33,-538C1998.33,-538 1779.67,-538 1779.67,-538 1775.83,-538 1772,-534.17 1772,-530.33 1772,-530.33 1772,-522.67 1772,-522.67 1772,-518.83 1775.83,-515 1779.67,-515 1779.67,-515 1998.33,-515 1998.33,-515 2002.17,-515 2006,-518.83 2006,-522.67 2006,-522.67 2006,-530.33 2006,-530.33 2006,-534.17 2002.17,-538 1998.33,-538"/>
<text text-anchor="middle" x="1889" y="-522.8" font-family="Arial" font-size="14.00" fill="#cfffac">../application/domains/users/entity.ts</text>
</g>
<!-- ../layouts/container/container.tsx -->
<g id="node3" class="node">
<title>../layouts/container/container.tsx</title>
<path fill="none" stroke="#cfffac" d="M823.33,-105C823.33,-105 629.67,-105 629.67,-105 625.83,-105 622,-101.17 622,-97.33 622,-97.33 622,-89.67 622,-89.67 622,-85.83 625.83,-82 629.67,-82 629.67,-82 823.33,-82 823.33,-82 827.17,-82 831,-85.83 831,-89.67 831,-89.67 831,-97.33 831,-97.33 831,-101.17 827.17,-105 823.33,-105"/>
<text text-anchor="middle" x="726.5" y="-89.8" font-family="Arial" font-size="14.00" fill="#cfffac">../layouts/container/container.tsx</text>
</g>
<!-- ../layouts/container/index.ts -->
<g id="node4" class="node">
<title>../layouts/container/index.ts</title>
<path fill="none" stroke="#c6c5fe" d="M578.33,-105C578.33,-105 413.67,-105 413.67,-105 409.83,-105 406,-101.17 406,-97.33 406,-97.33 406,-89.67 406,-89.67 406,-85.83 409.83,-82 413.67,-82 413.67,-82 578.33,-82 578.33,-82 582.17,-82 586,-85.83 586,-89.67 586,-89.67 586,-97.33 586,-97.33 586,-101.17 582.17,-105 578.33,-105"/>
<text text-anchor="middle" x="496" y="-89.8" font-family="Arial" font-size="14.00" fill="#c6c5fe">../layouts/container/index.ts</text>
</g>
<!-- ../layouts/container/index.ts&#45;&gt;../layouts/container/container.tsx -->
<g id="edge1" class="edge">
<title>../layouts/container/index.ts&#45;&gt;../layouts/container/container.tsx</title>
<path fill="none" stroke="#757575" d="M586.33,-93.5C594.69,-93.5 603.25,-93.5 611.8,-93.5"/>
<polygon fill="#757575" stroke="#757575" points="611.82,-97 621.82,-93.5 611.82,-90 611.82,-97"/>
</g>
<!-- ../layouts/header/header.tsx -->
<g id="node5" class="node">
<title>../layouts/header/header.tsx</title>
<path fill="none" stroke="#cfffac" d="M809.83,-64C809.83,-64 643.17,-64 643.17,-64 639.33,-64 635.5,-60.17 635.5,-56.33 635.5,-56.33 635.5,-48.67 635.5,-48.67 635.5,-44.83 639.33,-41 643.17,-41 643.17,-41 809.83,-41 809.83,-41 813.67,-41 817.5,-44.83 817.5,-48.67 817.5,-48.67 817.5,-56.33 817.5,-56.33 817.5,-60.17 813.67,-64 809.83,-64"/>
<text text-anchor="middle" x="726.5" y="-48.8" font-family="Arial" font-size="14.00" fill="#cfffac">../layouts/header/header.tsx</text>
</g>
<!-- ../layouts/header/index.ts -->
<g id="node6" class="node">
<title>../layouts/header/index.ts</title>
<path fill="none" stroke="#c6c5fe" d="M571.83,-64C571.83,-64 420.17,-64 420.17,-64 416.33,-64 412.5,-60.17 412.5,-56.33 412.5,-56.33 412.5,-48.67 412.5,-48.67 412.5,-44.83 416.33,-41 420.17,-41 420.17,-41 571.83,-41 571.83,-41 575.67,-41 579.5,-44.83 579.5,-48.67 579.5,-48.67 579.5,-56.33 579.5,-56.33 579.5,-60.17 575.67,-64 571.83,-64"/>
<text text-anchor="middle" x="496" y="-48.8" font-family="Arial" font-size="14.00" fill="#c6c5fe">../layouts/header/index.ts</text>
</g>
<!-- ../layouts/header/index.ts&#45;&gt;../layouts/header/header.tsx -->
<g id="edge2" class="edge">
<title>../layouts/header/index.ts&#45;&gt;../layouts/header/header.tsx</title>
<path fill="none" stroke="#757575" d="M579.82,-52.5C594.45,-52.5 609.83,-52.5 624.88,-52.5"/>
<polygon fill="#757575" stroke="#757575" points="625.24,-56 635.24,-52.5 625.24,-49 625.24,-56"/>
</g>
<!-- ../layouts/index.ts -->
<g id="node7" class="node">
<title>../layouts/index.ts</title>
<path fill="none" stroke="#c6c5fe" d="M362.33,-85C362.33,-85 256.67,-85 256.67,-85 252.83,-85 249,-81.17 249,-77.33 249,-77.33 249,-69.67 249,-69.67 249,-65.83 252.83,-62 256.67,-62 256.67,-62 362.33,-62 362.33,-62 366.17,-62 370,-65.83 370,-69.67 370,-69.67 370,-77.33 370,-77.33 370,-81.17 366.17,-85 362.33,-85"/>
<text text-anchor="middle" x="309.5" y="-69.8" font-family="Arial" font-size="14.00" fill="#c6c5fe">../layouts/index.ts</text>
</g>
<!-- ../layouts/index.ts&#45;&gt;../layouts/container/index.ts -->
<g id="edge3" class="edge">
<title>../layouts/index.ts&#45;&gt;../layouts/container/index.ts</title>
<path fill="none" stroke="#757575" d="M370.15,-79.97C378.32,-80.85 386.88,-81.78 395.53,-82.72"/>
<polygon fill="#757575" stroke="#757575" points="395.39,-86.22 405.71,-83.82 396.14,-79.26 395.39,-86.22"/>
</g>
<!-- ../layouts/index.ts&#45;&gt;../layouts/header/index.ts -->
<g id="edge4" class="edge">
<title>../layouts/index.ts&#45;&gt;../layouts/header/index.ts</title>
<path fill="none" stroke="#757575" d="M370.15,-66.71C380.46,-65.54 391.41,-64.29 402.36,-63.04"/>
<polygon fill="#757575" stroke="#757575" points="402.86,-66.51 412.4,-61.9 402.06,-59.56 402.86,-66.51"/>
</g>
<!-- ../layouts/main/index.ts -->
<g id="node8" class="node">
<title>../layouts/main/index.ts</title>
<path fill="none" stroke="#c6c5fe" d="M565.83,-23C565.83,-23 426.17,-23 426.17,-23 422.33,-23 418.5,-19.17 418.5,-15.33 418.5,-15.33 418.5,-7.67 418.5,-7.67 418.5,-3.83 422.33,0 426.17,0 426.17,0 565.83,0 565.83,0 569.67,0 573.5,-3.83 573.5,-7.67 573.5,-7.67 573.5,-15.33 573.5,-15.33 573.5,-19.17 569.67,-23 565.83,-23"/>
<text text-anchor="middle" x="496" y="-7.8" font-family="Arial" font-size="14.00" fill="#c6c5fe">../layouts/main/index.ts</text>
</g>
<!-- ../layouts/index.ts&#45;&gt;../layouts/main/index.ts -->
<g id="edge5" class="edge">
<title>../layouts/index.ts&#45;&gt;../layouts/main/index.ts</title>
<path fill="none" stroke="#757575" d="M346.81,-61.91C354.57,-59.1 362.64,-55.91 370,-52.5 386.81,-44.72 388.76,-38.28 406,-31.5 411.16,-29.47 416.57,-27.62 422.07,-25.95"/>
<polygon fill="#757575" stroke="#757575" points="423.37,-29.22 432.03,-23.11 421.45,-22.48 423.37,-29.22"/>
</g>
<!-- ../layouts/main/main.tsx -->
<g id="node9" class="node">
<title>../layouts/main/main.tsx</title>
<path fill="none" stroke="#cfffac" d="M798.33,-23C798.33,-23 654.67,-23 654.67,-23 650.83,-23 647,-19.17 647,-15.33 647,-15.33 647,-7.67 647,-7.67 647,-3.83 650.83,0 654.67,0 654.67,0 798.33,0 798.33,0 802.17,0 806,-3.83 806,-7.67 806,-7.67 806,-15.33 806,-15.33 806,-19.17 802.17,-23 798.33,-23"/>
<text text-anchor="middle" x="726.5" y="-7.8" font-family="Arial" font-size="14.00" fill="#cfffac">../layouts/main/main.tsx</text>
</g>
<!-- ../layouts/main/index.ts&#45;&gt;../layouts/main/main.tsx -->
<g id="edge6" class="edge">
<title>../layouts/main/index.ts&#45;&gt;../layouts/main/main.tsx</title>
<path fill="none" stroke="#757575" d="M573.72,-11.5C593.89,-11.5 615.81,-11.5 636.56,-11.5"/>
<polygon fill="#757575" stroke="#757575" points="636.64,-15 646.64,-11.5 636.64,-8 636.64,-15"/>
</g>
<!-- ../libs/theme.ts -->
<g id="node10" class="node">
<title>../libs/theme.ts</title>
<path fill="none" stroke="#cfffac" d="M353.83,-44C353.83,-44 265.17,-44 265.17,-44 261.33,-44 257.5,-40.17 257.5,-36.33 257.5,-36.33 257.5,-28.67 257.5,-28.67 257.5,-24.83 261.33,-21 265.17,-21 265.17,-21 353.83,-21 353.83,-21 357.67,-21 361.5,-24.83 361.5,-28.67 361.5,-28.67 361.5,-36.33 361.5,-36.33 361.5,-40.17 357.67,-44 353.83,-44"/>
<text text-anchor="middle" x="309.5" y="-28.8" font-family="Arial" font-size="14.00" fill="#cfffac">../libs/theme.ts</text>
</g>
<!-- ../store/entities/constants.ts -->
<g id="node11" class="node">
<title>../store/entities/constants.ts</title>
<path fill="none" stroke="#cfffac" d="M1971.33,-400C1971.33,-400 1806.67,-400 1806.67,-400 1802.83,-400 1799,-396.17 1799,-392.33 1799,-392.33 1799,-384.67 1799,-384.67 1799,-380.83 1802.83,-377 1806.67,-377 1806.67,-377 1971.33,-377 1971.33,-377 1975.17,-377 1979,-380.83 1979,-384.67 1979,-384.67 1979,-392.33 1979,-392.33 1979,-396.17 1975.17,-400 1971.33,-400"/>
<text text-anchor="middle" x="1889" y="-384.8" font-family="Arial" font-size="14.00" fill="#cfffac">../store/entities/constants.ts</text>
</g>
<!-- ../store/entities/index.ts -->
<g id="node12" class="node">
<title>../store/entities/index.ts</title>
<path fill="none" stroke="#ff6c60" d="M796.33,-378C796.33,-378 656.67,-378 656.67,-378 652.83,-378 649,-374.17 649,-370.33 649,-370.33 649,-362.67 649,-362.67 649,-358.83 652.83,-355 656.67,-355 656.67,-355 796.33,-355 796.33,-355 800.17,-355 804,-358.83 804,-362.67 804,-362.67 804,-370.33 804,-370.33 804,-374.17 800.17,-378 796.33,-378"/>
<text text-anchor="middle" x="726.5" y="-362.8" font-family="Arial" font-size="14.00" fill="#ff6c60">../store/entities/index.ts</text>
</g>
<!-- ../store/entities/index.ts&#45;&gt;../store/entities/constants.ts -->
<g id="edge7" class="edge">
<title>../store/entities/index.ts&#45;&gt;../store/entities/constants.ts</title>
<path fill="none" stroke="#757575" d="M804.07,-366.5C891.32,-366.5 1038.18,-366.5 1164.5,-366.5 1164.5,-366.5 1164.5,-366.5 1391,-366.5 1528.99,-366.5 1688.31,-375.07 1788.6,-381.51"/>
<polygon fill="#757575" stroke="#757575" points="1788.51,-385.01 1798.72,-382.17 1788.97,-378.03 1788.51,-385.01"/>
</g>
<!-- ../store/entities/reducer.ts -->
<g id="node13" class="node">
<title>../store/entities/reducer.ts</title>
<path fill="none" stroke="#ff6c60" d="M1026.33,-418C1026.33,-418 874.67,-418 874.67,-418 870.83,-418 867,-414.17 867,-410.33 867,-410.33 867,-402.67 867,-402.67 867,-398.83 870.83,-395 874.67,-395 874.67,-395 1026.33,-395 1026.33,-395 1030.17,-395 1034,-398.83 1034,-402.67 1034,-402.67 1034,-410.33 1034,-410.33 1034,-414.17 1030.17,-418 1026.33,-418"/>
<text text-anchor="middle" x="950.5" y="-402.8" font-family="Arial" font-size="14.00" fill="#ff6c60">../store/entities/reducer.ts</text>
</g>
<!-- ../store/entities/index.ts&#45;&gt;../store/entities/reducer.ts -->
<g id="edge8" class="edge">
<title>../store/entities/index.ts&#45;&gt;../store/entities/reducer.ts</title>
<path fill="none" stroke="#757575" d="M791.41,-378.02C817.77,-382.76 848.47,-388.3 875.76,-393.21"/>
<polygon fill="#757575" stroke="#757575" points="875.19,-396.67 885.65,-395 876.43,-389.78 875.19,-396.67"/>
</g>
<!-- ../store/entities/users/index.ts -->
<g id="node14" class="node">
<title>../store/entities/users/index.ts</title>
<path fill="none" stroke="#ff6c60" d="M1253.33,-456C1253.33,-456 1077.67,-456 1077.67,-456 1073.83,-456 1070,-452.17 1070,-448.33 1070,-448.33 1070,-440.67 1070,-440.67 1070,-436.83 1073.83,-433 1077.67,-433 1077.67,-433 1253.33,-433 1253.33,-433 1257.17,-433 1261,-436.83 1261,-440.67 1261,-440.67 1261,-448.33 1261,-448.33 1261,-452.17 1257.17,-456 1253.33,-456"/>
<text text-anchor="middle" x="1165.5" y="-440.8" font-family="Arial" font-size="14.00" fill="#ff6c60">../store/entities/users/index.ts</text>
</g>
<!-- ../store/entities/reducer.ts&#45;&gt;../store/entities/users/index.ts -->
<g id="edge9" class="edge">
<title>../store/entities/reducer.ts&#45;&gt;../store/entities/users/index.ts</title>
<path fill="none" stroke="#757575" d="M1015.99,-418C1039.23,-422.15 1065.66,-426.87 1089.72,-431.16"/>
<polygon fill="#757575" stroke="#757575" points="1089.41,-434.66 1099.87,-432.97 1090.64,-427.77 1089.41,-434.66"/>
</g>
<!-- ../store/entities/users/constants.ts -->
<g id="node15" class="node">
<title>../store/entities/users/constants.ts</title>
<path fill="none" stroke="#c6c5fe" d="M1728.33,-418C1728.33,-418 1526.67,-418 1526.67,-418 1522.83,-418 1519,-414.17 1519,-410.33 1519,-410.33 1519,-402.67 1519,-402.67 1519,-398.83 1522.83,-395 1526.67,-395 1526.67,-395 1728.33,-395 1728.33,-395 1732.17,-395 1736,-398.83 1736,-402.67 1736,-402.67 1736,-410.33 1736,-410.33 1736,-414.17 1732.17,-418 1728.33,-418"/>
<text text-anchor="middle" x="1627.5" y="-402.8" font-family="Arial" font-size="14.00" fill="#c6c5fe">../store/entities/users/constants.ts</text>
</g>
<!-- ../store/entities/users/index.ts&#45;&gt;../store/entities/users/constants.ts -->
<g id="edge11" class="edge">
<title>../store/entities/users/index.ts&#45;&gt;../store/entities/users/constants.ts</title>
<path fill="none" stroke="#757575" d="M1261.26,-433.95C1273.28,-432.72 1285.43,-431.54 1297,-430.5 1367.08,-424.19 1445.65,-418.42 1508.49,-414.11"/>
<polygon fill="#757575" stroke="#757575" points="1509.1,-417.58 1518.84,-413.41 1508.62,-410.6 1509.1,-417.58"/>
</g>
<!-- ../store/entities/users/selectors.ts -->
<g id="node16" class="node">
<title>../store/entities/users/selectors.ts</title>
<path fill="none" stroke="#ff6c60" d="M205.33,-477C205.33,-477 7.67,-477 7.67,-477 3.83,-477 0,-473.17 0,-469.33 0,-469.33 0,-461.67 0,-461.67 0,-457.83 3.83,-454 7.67,-454 7.67,-454 205.33,-454 205.33,-454 209.17,-454 213,-457.83 213,-461.67 213,-461.67 213,-469.33 213,-469.33 213,-473.17 209.17,-477 205.33,-477"/>
<text text-anchor="middle" x="106.5" y="-461.8" font-family="Arial" font-size="14.00" fill="#ff6c60">../store/entities/users/selectors.ts</text>
</g>
<!-- ../store/entities/users/index.ts&#45;&gt;../store/entities/users/selectors.ts -->
<g id="edge12" class="edge">
<title>../store/entities/users/index.ts&#45;&gt;../store/entities/users/selectors.ts</title>
<path fill="none" stroke="#757575" d="M1069.88,-445.18C981.37,-445.76 845.48,-446.5 727.5,-446.5 495,-446.5 495,-446.5 495,-446.5 403.63,-446.5 300.28,-451.84 223.31,-456.85"/>
<polygon fill="#757575" stroke="#757575" points="222.85,-453.37 213.1,-457.52 223.31,-460.36 222.85,-453.37"/>
</g>
<!-- ../store/entities/users/slice.ts -->
<g id="node17" class="node">
<title>../store/entities/users/slice.ts</title>
<path fill="none" stroke="#c6c5fe" d="M1475.33,-496C1475.33,-496 1304.67,-496 1304.67,-496 1300.83,-496 1297,-492.17 1297,-488.33 1297,-488.33 1297,-480.67 1297,-480.67 1297,-476.83 1300.83,-473 1304.67,-473 1304.67,-473 1475.33,-473 1475.33,-473 1479.17,-473 1483,-476.83 1483,-480.67 1483,-480.67 1483,-488.33 1483,-488.33 1483,-492.17 1479.17,-496 1475.33,-496"/>
<text text-anchor="middle" x="1390" y="-480.8" font-family="Arial" font-size="14.00" fill="#c6c5fe">../store/entities/users/slice.ts</text>
</g>
<!-- ../store/entities/users/index.ts&#45;&gt;../store/entities/users/slice.ts -->
<g id="edge13" class="edge">
<title>../store/entities/users/index.ts&#45;&gt;../store/entities/users/slice.ts</title>
<path fill="none" stroke="#757575" d="M1230.56,-456.02C1256.97,-460.76 1287.74,-466.3 1315.1,-471.21"/>
<polygon fill="#757575" stroke="#757575" points="1314.55,-474.67 1325.01,-473 1315.79,-467.78 1314.55,-474.67"/>
</g>
<!-- ../store/entities/users/types.ts -->
<g id="node18" class="node">
<title>../store/entities/users/types.ts</title>
<path fill="none" stroke="#c6c5fe" d="M1715.33,-498C1715.33,-498 1539.67,-498 1539.67,-498 1535.83,-498 1532,-494.17 1532,-490.33 1532,-490.33 1532,-482.67 1532,-482.67 1532,-478.83 1535.83,-475 1539.67,-475 1539.67,-475 1715.33,-475 1715.33,-475 1719.17,-475 1723,-478.83 1723,-482.67 1723,-482.67 1723,-490.33 1723,-490.33 1723,-494.17 1719.17,-498 1715.33,-498"/>
<text text-anchor="middle" x="1627.5" y="-482.8" font-family="Arial" font-size="14.00" fill="#c6c5fe">../store/entities/users/types.ts</text>
</g>
<!-- ../store/entities/users/index.ts&#45;&gt;../store/entities/users/types.ts -->
<g id="edge14" class="edge">
<title>../store/entities/users/index.ts&#45;&gt;../store/entities/users/types.ts</title>
<path fill="none" stroke="#757575" d="M1261.23,-447.74C1324.22,-450.49 1408.72,-455.34 1483,-463.5 1505.84,-466.01 1530.58,-469.64 1552.99,-473.28"/>
<polygon fill="#757575" stroke="#757575" points="1552.67,-476.78 1563.11,-474.95 1553.81,-469.87 1552.67,-476.78"/>
</g>
<!-- ../store/entities/users/constants.ts&#45;&gt;../store/entities/constants.ts -->
<g id="edge10" class="edge">
<title>../store/entities/users/constants.ts&#45;&gt;../store/entities/constants.ts</title>
<path fill="none" stroke="#757575" d="M1736.3,-399.02C1753.64,-397.82 1771.53,-396.58 1788.66,-395.39"/>
<polygon fill="#757575" stroke="#757575" points="1788.92,-398.88 1798.65,-394.7 1788.43,-391.9 1788.92,-398.88"/>
</g>
<!-- ../store/entities/users/selectors.ts&#45;&gt;../application/domains/users/entity.ts -->
<g id="edge15" class="edge">
<title>../store/entities/users/selectors.ts&#45;&gt;../application/domains/users/entity.ts</title>
<path fill="none" stroke="#757575" d="M133.69,-477.05C195.36,-503.17 355.09,-564.5 495,-564.5 495,-564.5 495,-564.5 1391,-564.5 1526.95,-564.5 1683.22,-550.19 1783.66,-539.13"/>
<polygon fill="#757575" stroke="#757575" points="1784.26,-542.59 1793.81,-538 1783.48,-535.63 1784.26,-542.59"/>
</g>
<!-- ../store/entities/users/selectors.ts&#45;&gt;../store/entities/users/slice.ts -->
<g id="edge16" class="edge">
<title>../store/entities/users/selectors.ts&#45;&gt;../store/entities/users/slice.ts</title>
<path fill="none" stroke="#757575" d="M213.1,-473.48C290.97,-478.67 399.52,-484.5 495,-484.5 495,-484.5 495,-484.5 951.5,-484.5 1066.32,-484.5 1198.1,-484.5 1286.76,-484.5"/>
<polygon fill="#757575" stroke="#757575" points="1286.82,-488 1296.82,-484.5 1286.82,-481 1286.82,-488"/>
</g>
<!-- ../store/index.ts -->
<g id="node19" class="node">
<title>../store/index.ts</title>
<path fill="none" stroke="#ff6c60" d="M355.83,-194C355.83,-194 263.17,-194 263.17,-194 259.33,-194 255.5,-190.17 255.5,-186.33 255.5,-186.33 255.5,-178.67 255.5,-178.67 255.5,-174.83 259.33,-171 263.17,-171 263.17,-171 355.83,-171 355.83,-171 359.67,-171 363.5,-174.83 363.5,-178.67 363.5,-178.67 363.5,-186.33 363.5,-186.33 363.5,-190.17 359.67,-194 355.83,-194"/>
<text text-anchor="middle" x="309.5" y="-178.8" font-family="Arial" font-size="14.00" fill="#ff6c60">../store/index.ts</text>
</g>
<!-- ../store/entities/users/selectors.ts&#45;&gt;../store/index.ts -->
<g id="edge17" class="edge">
<title>../store/entities/users/selectors.ts&#45;&gt;../store/index.ts</title>
<path fill="none" stroke="#757575" d="M115.88,-453.7C146.92,-410 255.54,-257.07 294.48,-202.25"/>
<polygon fill="#757575" stroke="#757575" points="297.37,-204.22 300.31,-194.04 291.66,-200.16 297.37,-204.22"/>
</g>
<!-- ../store/entities/users/slice.ts&#45;&gt;../application/domains/users/entity.ts -->
<g id="edge18" class="edge">
<title>../store/entities/users/slice.ts&#45;&gt;../application/domains/users/entity.ts</title>
<path fill="none" stroke="#757575" d="M1446.53,-496.06C1468.95,-500.31 1495.11,-504.75 1519,-507.5 1599.33,-516.75 1690.01,-521.49 1761.38,-523.93"/>
<polygon fill="#757575" stroke="#757575" points="1761.66,-527.44 1771.77,-524.27 1761.89,-520.45 1761.66,-527.44"/>
</g>
<!-- ../store/entities/users/slice.ts&#45;&gt;../store/entities/users/constants.ts -->
<g id="edge19" class="edge">
<title>../store/entities/users/slice.ts&#45;&gt;../store/entities/users/constants.ts</title>
<path fill="none" stroke="#757575" d="M1416.57,-472.8C1442.11,-461.42 1482.7,-444.19 1519,-432.5 1532.81,-428.05 1547.83,-423.96 1562.15,-420.41"/>
<polygon fill="#757575" stroke="#757575" points="1563.03,-423.8 1571.93,-418.04 1561.38,-417 1563.03,-423.8"/>
</g>
<!-- ../store/entities/users/slice.ts&#45;&gt;../store/entities/users/types.ts -->
<g id="edge20" class="edge">
<title>../store/entities/users/slice.ts&#45;&gt;../store/entities/users/types.ts</title>
<path fill="none" stroke="#757575" d="M1483.06,-485.28C1495.68,-485.39 1508.72,-485.5 1521.55,-485.61"/>
<polygon fill="#757575" stroke="#757575" points="1521.76,-489.11 1531.79,-485.7 1521.82,-482.11 1521.76,-489.11"/>
</g>
<!-- ../store/status.ts -->
<g id="node20" class="node">
<title>../store/status.ts</title>
<path fill="none" stroke="#cfffac" d="M1937.33,-350C1937.33,-350 1840.67,-350 1840.67,-350 1836.83,-350 1833,-346.17 1833,-342.33 1833,-342.33 1833,-334.67 1833,-334.67 1833,-330.83 1836.83,-327 1840.67,-327 1840.67,-327 1937.33,-327 1937.33,-327 1941.17,-327 1945,-330.83 1945,-334.67 1945,-334.67 1945,-342.33 1945,-342.33 1945,-346.17 1941.17,-350 1937.33,-350"/>
<text text-anchor="middle" x="1889" y="-334.8" font-family="Arial" font-size="14.00" fill="#cfffac">../store/status.ts</text>
</g>
<!-- ../store/entities/users/slice.ts&#45;&gt;../store/status.ts -->
<g id="edge21" class="edge">
<title>../store/entities/users/slice.ts&#45;&gt;../store/status.ts</title>
<path fill="none" stroke="#757575" d="M1464.33,-472.95C1563.94,-457.15 1730.37,-430.31 1736,-426.5 1761.44,-409.29 1747.25,-385.7 1772,-367.5 1786.82,-356.61 1805.27,-349.78 1823.07,-345.51"/>
<polygon fill="#757575" stroke="#757575" points="1823.83,-348.93 1832.87,-343.39 1822.35,-342.08 1823.83,-348.93"/>
</g>
<!-- ../store/entities/users/types.ts&#45;&gt;../application/domains/users/entity.ts -->
<g id="edge22" class="edge">
<title>../store/entities/users/types.ts&#45;&gt;../application/domains/users/entity.ts</title>
<path fill="none" stroke="#757575" d="M1703.21,-498.02C1734.55,-502.85 1771.16,-508.49 1803.48,-513.47"/>
<polygon fill="#757575" stroke="#757575" points="1802.95,-516.93 1813.37,-515 1804.02,-510.01 1802.95,-516.93"/>
</g>
<!-- ../store/entities/users/types.ts&#45;&gt;../store/status.ts -->
<g id="edge23" class="edge">
<title>../store/entities/users/types.ts&#45;&gt;../store/status.ts</title>
<path fill="none" stroke="#757575" d="M1712.35,-474.93C1720.95,-471.28 1729.07,-466.57 1736,-460.5 1769.34,-431.3 1738.77,-396.83 1772,-367.5 1786.05,-355.1 1804.62,-347.84 1822.77,-343.63"/>
<polygon fill="#757575" stroke="#757575" points="1823.67,-347.02 1832.78,-341.6 1822.28,-340.16 1823.67,-347.02"/>
</g>
<!-- ../store/middleware.ts -->
<g id="node21" class="node">
<title>../store/middleware.ts</title>
<path fill="none" stroke="#cfffac" d="M561.33,-194C561.33,-194 430.67,-194 430.67,-194 426.83,-194 423,-190.17 423,-186.33 423,-186.33 423,-178.67 423,-178.67 423,-174.83 426.83,-171 430.67,-171 430.67,-171 561.33,-171 561.33,-171 565.17,-171 569,-174.83 569,-178.67 569,-178.67 569,-186.33 569,-186.33 569,-190.17 565.17,-194 561.33,-194"/>
<text text-anchor="middle" x="496" y="-178.8" font-family="Arial" font-size="14.00" fill="#cfffac">../store/middleware.ts</text>
</g>
<!-- ../store/index.ts&#45;&gt;../store/middleware.ts -->
<g id="edge24" class="edge">
<title>../store/index.ts&#45;&gt;../store/middleware.ts</title>
<path fill="none" stroke="#757575" d="M363.87,-182.5C379.11,-182.5 396.09,-182.5 412.65,-182.5"/>
<polygon fill="#757575" stroke="#757575" points="412.88,-186 422.88,-182.5 412.88,-179 412.88,-186"/>
</g>
<!-- ../store/reducer.ts -->
<g id="node22" class="node">
<title>../store/reducer.ts</title>
<path fill="none" stroke="#ff6c60" d="M548.83,-253C548.83,-253 443.17,-253 443.17,-253 439.33,-253 435.5,-249.17 435.5,-245.33 435.5,-245.33 435.5,-237.67 435.5,-237.67 435.5,-233.83 439.33,-230 443.17,-230 443.17,-230 548.83,-230 548.83,-230 552.67,-230 556.5,-233.83 556.5,-237.67 556.5,-237.67 556.5,-245.33 556.5,-245.33 556.5,-249.17 552.67,-253 548.83,-253"/>
<text text-anchor="middle" x="496" y="-237.8" font-family="Arial" font-size="14.00" fill="#ff6c60">../store/reducer.ts</text>
</g>
<!-- ../store/index.ts&#45;&gt;../store/reducer.ts -->
<g id="edge25" class="edge">
<title>../store/index.ts&#45;&gt;../store/reducer.ts</title>
<path fill="none" stroke="#757575" d="M346.51,-194.02C375.75,-203.37 417.18,-216.61 448.85,-226.74"/>
<polygon fill="#757575" stroke="#757575" points="448.17,-230.2 458.76,-229.91 450.31,-223.53 448.17,-230.2"/>
</g>
<!-- ../store/reducer.ts&#45;&gt;../store/entities/index.ts -->
<g id="edge26" class="edge">
<title>../store/reducer.ts&#45;&gt;../store/entities/index.ts</title>
<path fill="none" stroke="#757575" d="M518.09,-253.04C558.9,-275.36 648.78,-324.53 695.68,-350.19"/>
<polygon fill="#757575" stroke="#757575" points="694.01,-353.26 704.46,-354.99 697.37,-347.12 694.01,-353.26"/>
</g>
<!-- ../store/ui/index.ts -->
<g id="node23" class="node">
<title>../store/ui/index.ts</title>
<path fill="none" stroke="#ff6c60" d="M779.83,-253C779.83,-253 673.17,-253 673.17,-253 669.33,-253 665.5,-249.17 665.5,-245.33 665.5,-245.33 665.5,-237.67 665.5,-237.67 665.5,-233.83 669.33,-230 673.17,-230 673.17,-230 779.83,-230 779.83,-230 783.67,-230 787.5,-233.83 787.5,-237.67 787.5,-237.67 787.5,-245.33 787.5,-245.33 787.5,-249.17 783.67,-253 779.83,-253"/>
<text text-anchor="middle" x="726.5" y="-237.8" font-family="Arial" font-size="14.00" fill="#ff6c60">../store/ui/index.ts</text>
</g>
<!-- ../store/reducer.ts&#45;&gt;../store/ui/index.ts -->
<g id="edge27" class="edge">
<title>../store/reducer.ts&#45;&gt;../store/ui/index.ts</title>
<path fill="none" stroke="#757575" d="M556.74,-241.5C586.92,-241.5 623.74,-241.5 655.28,-241.5"/>
<polygon fill="#757575" stroke="#757575" points="655.32,-245 665.32,-241.5 655.32,-238 655.32,-245"/>
</g>
<!-- ../store/ui/constants.ts -->
<g id="node24" class="node">
<title>../store/ui/constants.ts</title>
<path fill="none" stroke="#cfffac" d="M1955.33,-220C1955.33,-220 1822.67,-220 1822.67,-220 1818.83,-220 1815,-216.17 1815,-212.33 1815,-212.33 1815,-204.67 1815,-204.67 1815,-200.83 1818.83,-197 1822.67,-197 1822.67,-197 1955.33,-197 1955.33,-197 1959.17,-197 1963,-200.83 1963,-204.67 1963,-204.67 1963,-212.33 1963,-212.33 1963,-216.17 1959.17,-220 1955.33,-220"/>
<text text-anchor="middle" x="1889" y="-204.8" font-family="Arial" font-size="14.00" fill="#cfffac">../store/ui/constants.ts</text>
</g>
<!-- ../store/ui/index.ts&#45;&gt;../store/ui/constants.ts -->
<g id="edge39" class="edge">
<title>../store/ui/index.ts&#45;&gt;../store/ui/constants.ts</title>
<path fill="none" stroke="#757575" d="M787.84,-232.56C812.36,-229.11 841,-225.33 867,-222.5 1139.61,-192.86 1208.87,-180.4 1483,-187.5 1594.48,-190.39 1723.05,-197.74 1804.89,-202.93"/>
<polygon fill="#757575" stroke="#757575" points="1804.68,-206.42 1814.88,-203.57 1805.12,-199.44 1804.68,-206.42"/>
</g>
<!-- ../store/ui/reducer.ts -->
<g id="node30" class="node">
<title>../store/ui/reducer.ts</title>
<path fill="none" stroke="#ff6c60" d="M1010.33,-255C1010.33,-255 890.67,-255 890.67,-255 886.83,-255 883,-251.17 883,-247.33 883,-247.33 883,-239.67 883,-239.67 883,-235.83 886.83,-232 890.67,-232 890.67,-232 1010.33,-232 1010.33,-232 1014.17,-232 1018,-235.83 1018,-239.67 1018,-239.67 1018,-247.33 1018,-247.33 1018,-251.17 1014.17,-255 1010.33,-255"/>
<text text-anchor="middle" x="950.5" y="-239.8" font-family="Arial" font-size="14.00" fill="#ff6c60">../store/ui/reducer.ts</text>
</g>
<!-- ../store/ui/index.ts&#45;&gt;../store/ui/reducer.ts -->
<g id="edge40" class="edge">
<title>../store/ui/index.ts&#45;&gt;../store/ui/reducer.ts</title>
<path fill="none" stroke="#757575" d="M787.58,-242.04C813.77,-242.28 844.78,-242.56 872.63,-242.81"/>
<polygon fill="#757575" stroke="#757575" points="872.7,-246.31 882.73,-242.9 872.76,-239.31 872.7,-246.31"/>
</g>
<!-- ../store/ui/form/constants.ts -->
<g id="node25" class="node">
<title>../store/ui/form/constants.ts</title>
<path fill="none" stroke="#c6c5fe" d="M1709.33,-259C1709.33,-259 1545.67,-259 1545.67,-259 1541.83,-259 1538,-255.17 1538,-251.33 1538,-251.33 1538,-243.67 1538,-243.67 1538,-239.83 1541.83,-236 1545.67,-236 1545.67,-236 1709.33,-236 1709.33,-236 1713.17,-236 1717,-239.83 1717,-243.67 1717,-243.67 1717,-251.33 1717,-251.33 1717,-255.17 1713.17,-259 1709.33,-259"/>
<text text-anchor="middle" x="1627.5" y="-243.8" font-family="Arial" font-size="14.00" fill="#c6c5fe">../store/ui/form/constants.ts</text>
</g>
<!-- ../store/ui/form/constants.ts&#45;&gt;../store/ui/constants.ts -->
<g id="edge28" class="edge">
<title>../store/ui/form/constants.ts&#45;&gt;../store/ui/constants.ts</title>
<path fill="none" stroke="#757575" d="M1705.31,-235.96C1736.59,-231.25 1772.84,-225.81 1804.75,-221.01"/>
<polygon fill="#757575" stroke="#757575" points="1805.59,-224.43 1814.95,-219.48 1804.54,-217.5 1805.59,-224.43"/>
</g>
<!-- ../store/ui/form/index.ts -->
<g id="node26" class="node">
<title>../store/ui/form/index.ts</title>
<path fill="none" stroke="#ff6c60" d="M1234.83,-260C1234.83,-260 1096.17,-260 1096.17,-260 1092.33,-260 1088.5,-256.17 1088.5,-252.33 1088.5,-252.33 1088.5,-244.67 1088.5,-244.67 1088.5,-240.83 1092.33,-237 1096.17,-237 1096.17,-237 1234.83,-237 1234.83,-237 1238.67,-237 1242.5,-240.83 1242.5,-244.67 1242.5,-244.67 1242.5,-252.33 1242.5,-252.33 1242.5,-256.17 1238.67,-260 1234.83,-260"/>
<text text-anchor="middle" x="1165.5" y="-244.8" font-family="Arial" font-size="14.00" fill="#ff6c60">../store/ui/form/index.ts</text>
</g>
<!-- ../store/ui/form/index.ts&#45;&gt;../store/ui/form/constants.ts -->
<g id="edge29" class="edge">
<title>../store/ui/form/index.ts&#45;&gt;../store/ui/form/constants.ts</title>
<path fill="none" stroke="#757575" d="M1242.72,-248.33C1320.74,-248.16 1442.34,-247.9 1527.7,-247.71"/>
<polygon fill="#757575" stroke="#757575" points="1527.94,-251.21 1537.93,-247.69 1527.92,-244.21 1527.94,-251.21"/>
</g>
<!-- ../store/ui/form/selectors.ts -->
<g id="node27" class="node">
<title>../store/ui/form/selectors.ts</title>
<path fill="none" stroke="#ff6c60" d="M1470.33,-220C1470.33,-220 1309.67,-220 1309.67,-220 1305.83,-220 1302,-216.17 1302,-212.33 1302,-212.33 1302,-204.67 1302,-204.67 1302,-200.83 1305.83,-197 1309.67,-197 1309.67,-197 1470.33,-197 1470.33,-197 1474.17,-197 1478,-200.83 1478,-204.67 1478,-204.67 1478,-212.33 1478,-212.33 1478,-216.17 1474.17,-220 1470.33,-220"/>
<text text-anchor="middle" x="1390" y="-204.8" font-family="Arial" font-size="14.00" fill="#ff6c60">../store/ui/form/selectors.ts</text>
</g>
<!-- ../store/ui/form/index.ts&#45;&gt;../store/ui/form/selectors.ts -->
<g id="edge30" class="edge">
<title>../store/ui/form/index.ts&#45;&gt;../store/ui/form/selectors.ts</title>
<path fill="none" stroke="#757575" d="M1230.56,-236.98C1256.97,-232.24 1287.74,-226.7 1315.1,-221.79"/>
<polygon fill="#757575" stroke="#757575" points="1315.79,-225.22 1325.01,-220 1314.55,-218.33 1315.79,-225.22"/>
</g>
<!-- ../store/ui/form/slice.ts -->
<g id="node28" class="node">
<title>../store/ui/form/slice.ts</title>
<path fill="none" stroke="#c6c5fe" d="M1456.83,-338C1456.83,-338 1323.17,-338 1323.17,-338 1319.33,-338 1315.5,-334.17 1315.5,-330.33 1315.5,-330.33 1315.5,-322.67 1315.5,-322.67 1315.5,-318.83 1319.33,-315 1323.17,-315 1323.17,-315 1456.83,-315 1456.83,-315 1460.67,-315 1464.5,-318.83 1464.5,-322.67 1464.5,-322.67 1464.5,-330.33 1464.5,-330.33 1464.5,-334.17 1460.67,-338 1456.83,-338"/>
<text text-anchor="middle" x="1390" y="-322.8" font-family="Arial" font-size="14.00" fill="#c6c5fe">../store/ui/form/slice.ts</text>
</g>
<!-- ../store/ui/form/index.ts&#45;&gt;../store/ui/form/slice.ts -->
<g id="edge31" class="edge">
<title>../store/ui/form/index.ts&#45;&gt;../store/ui/form/slice.ts</title>
<path fill="none" stroke="#757575" d="M1193.19,-260.08C1219.35,-271.21 1260.51,-288.11 1297,-300.5 1309.15,-304.63 1322.36,-308.63 1334.87,-312.21"/>
<polygon fill="#757575" stroke="#757575" points="1334.15,-315.65 1344.73,-314.99 1336.05,-308.91 1334.15,-315.65"/>
</g>
<!-- ../store/ui/form/types.ts -->
<g id="node29" class="node">
<title>../store/ui/form/types.ts</title>
<path fill="none" stroke="#c6c5fe" d="M1696.83,-300C1696.83,-300 1558.17,-300 1558.17,-300 1554.33,-300 1550.5,-296.17 1550.5,-292.33 1550.5,-292.33 1550.5,-284.67 1550.5,-284.67 1550.5,-280.83 1554.33,-277 1558.17,-277 1558.17,-277 1696.83,-277 1696.83,-277 1700.67,-277 1704.5,-280.83 1704.5,-284.67 1704.5,-284.67 1704.5,-292.33 1704.5,-292.33 1704.5,-296.17 1700.67,-300 1696.83,-300"/>
<text text-anchor="middle" x="1627.5" y="-284.8" font-family="Arial" font-size="14.00" fill="#c6c5fe">../store/ui/form/types.ts</text>
</g>
<!-- ../store/ui/form/index.ts&#45;&gt;../store/ui/form/types.ts -->
<g id="edge32" class="edge">
<title>../store/ui/form/index.ts&#45;&gt;../store/ui/form/types.ts</title>
<path fill="none" stroke="#757575" d="M1242.72,-257.04C1260.52,-258.93 1279.42,-260.86 1297,-262.5 1379.47,-270.18 1473.69,-277.46 1540.19,-282.36"/>
<polygon fill="#757575" stroke="#757575" points="1539.98,-285.85 1550.21,-283.09 1540.49,-278.87 1539.98,-285.85"/>
</g>
<!-- ../store/ui/form/selectors.ts&#45;&gt;../store/index.ts -->
<g id="edge33" class="edge">
<title>../store/ui/form/selectors.ts&#45;&gt;../store/index.ts</title>
<path fill="none" stroke="#757575" d="M1348.98,-196.95C1272.47,-175.91 1099.85,-133.5 951.5,-133.5 725.5,-133.5 725.5,-133.5 725.5,-133.5 582.96,-133.5 546.9,-139.93 406,-161.5 393.42,-163.43 380.02,-166.02 367.36,-168.74"/>
<polygon fill="#757575" stroke="#757575" points="366.41,-165.36 357.39,-170.93 367.91,-172.2 366.41,-165.36"/>
</g>
<!-- ../store/ui/form/slice.ts&#45;&gt;../store/status.ts -->
<g id="edge34" class="edge">
<title>../store/ui/form/slice.ts&#45;&gt;../store/status.ts</title>
<path fill="none" stroke="#757575" d="M1464.6,-328.28C1561.49,-330.62 1730.32,-334.69 1822.82,-336.93"/>
<polygon fill="#757575" stroke="#757575" points="1822.81,-340.43 1832.89,-337.17 1822.98,-333.43 1822.81,-340.43"/>
</g>
<!-- ../store/ui/form/slice.ts&#45;&gt;../store/ui/form/constants.ts -->
<g id="edge35" class="edge">
<title>../store/ui/form/slice.ts&#45;&gt;../store/ui/form/constants.ts</title>
<path fill="none" stroke="#757575" d="M1412.09,-314.79C1436.94,-301.47 1479.83,-279.96 1519,-267.5 1526.25,-265.19 1533.87,-263.12 1541.55,-261.26"/>
<polygon fill="#757575" stroke="#757575" points="1542.34,-264.67 1551.31,-259.02 1540.78,-257.85 1542.34,-264.67"/>
</g>
<!-- ../store/ui/form/slice.ts&#45;&gt;../store/ui/form/types.ts -->
<g id="edge36" class="edge">
<title>../store/ui/form/slice.ts&#45;&gt;../store/ui/form/types.ts</title>
<path fill="none" stroke="#757575" d="M1462.3,-315C1488.35,-310.79 1518.01,-306.01 1544.89,-301.67"/>
<polygon fill="#757575" stroke="#757575" points="1545.72,-305.08 1555.04,-300.03 1544.61,-298.17 1545.72,-305.08"/>
</g>
<!-- ../store/ui/form/types.ts&#45;&gt;../application/domains/form/entity.ts -->
<g id="edge37" class="edge">
<title>../store/ui/form/types.ts&#45;&gt;../application/domains/form/entity.ts</title>
<path fill="none" stroke="#757575" d="M1704.61,-288.5C1723.28,-288.5 1743.76,-288.5 1764.05,-288.5"/>
<polygon fill="#757575" stroke="#757575" points="1764.31,-292 1774.31,-288.5 1764.31,-285 1764.31,-292"/>
</g>
<!-- ../store/ui/form/types.ts&#45;&gt;../store/status.ts -->
<g id="edge38" class="edge">
<title>../store/ui/form/types.ts&#45;&gt;../store/status.ts</title>
<path fill="none" stroke="#757575" d="M1688.36,-300.03C1728.6,-307.79 1781.62,-318 1822.91,-325.96"/>
<polygon fill="#757575" stroke="#757575" points="1822.39,-329.42 1832.87,-327.88 1823.71,-322.55 1822.39,-329.42"/>
</g>
<!-- ../store/ui/reducer.ts&#45;&gt;../store/ui/form/index.ts -->
<g id="edge41" class="edge">
<title>../store/ui/reducer.ts&#45;&gt;../store/ui/form/index.ts</title>
<path fill="none" stroke="#757575" d="M1018.02,-245.06C1037.13,-245.51 1058.25,-246.01 1078.36,-246.48"/>
<polygon fill="#757575" stroke="#757575" points="1078.37,-249.98 1088.45,-246.71 1078.54,-242.98 1078.37,-249.98"/>
</g>
<!-- _app.tsx -->
<g id="node31" class="node">
<title>_app.tsx</title>
<path fill="none" stroke="#c6c5fe" d="M132.83,-85C132.83,-85 80.17,-85 80.17,-85 76.33,-85 72.5,-81.17 72.5,-77.33 72.5,-77.33 72.5,-69.67 72.5,-69.67 72.5,-65.83 76.33,-62 80.17,-62 80.17,-62 132.83,-62 132.83,-62 136.67,-62 140.5,-65.83 140.5,-69.67 140.5,-69.67 140.5,-77.33 140.5,-77.33 140.5,-81.17 136.67,-85 132.83,-85"/>
<text text-anchor="middle" x="106.5" y="-69.8" font-family="Arial" font-size="14.00" fill="#c6c5fe">_app.tsx</text>
</g>
<!-- _app.tsx&#45;&gt;../layouts/index.ts -->
<g id="edge42" class="edge">
<title>_app.tsx&#45;&gt;../layouts/index.ts</title>
<path fill="none" stroke="#757575" d="M140.69,-73.5C167.27,-73.5 205.47,-73.5 238.71,-73.5"/>
<polygon fill="#757575" stroke="#757575" points="238.84,-77 248.84,-73.5 238.84,-70 238.84,-77"/>
</g>
<!-- _app.tsx&#45;&gt;../libs/theme.ts -->
<g id="edge43" class="edge">
<title>_app.tsx&#45;&gt;../libs/theme.ts</title>
<path fill="none" stroke="#757575" d="M140.69,-66.73C169.51,-60.85 212,-52.18 247.02,-45.04"/>
<polygon fill="#757575" stroke="#757575" points="248.05,-48.4 257.15,-42.98 246.65,-41.54 248.05,-48.4"/>
</g>
<!-- _app.tsx&#45;&gt;../store/index.ts -->
<g id="edge44" class="edge">
<title>_app.tsx&#45;&gt;../store/index.ts</title>
<path fill="none" stroke="#757575" d="M129.01,-85.16C164.9,-104.63 237.1,-143.78 278.15,-166.04"/>
<polygon fill="#757575" stroke="#757575" points="276.69,-169.23 287.14,-170.92 280.02,-163.08 276.69,-169.23"/>
</g>
</g>
</svg>
